# xmcd
#
# Track frame offsets:
#	150
#	16262
#	37294
#	66077
#	85648
#	103426
#	124024
#	140113
#	156198
#	180015
#	199600
#	214045
#
# Disc length: 3126 seconds
#
# Revision: 0
# Processed by: cddbd v1.5.1PL0 Copyright (c) Steve Scherf et al.
# Submitted via: dBpowerAMP V4.0
#
DISCID=a40c340c
DTITLE=Cajun Pioneers - Tante Na Na
DYEAR=2003
DGENRE=Cajun
TTITLE0=Josephine C' Est Pas Ma Femme
TTITLE1=Blues De Bosco
TTITLE2=Tante Na Na
TTITLE3=Two Step De Prairie Soileau
TTITLE4=Chere Catin
TTITLE5=Alligator
TTITLE6=Paper In My Shoe
TTITLE7=C' Est Pas La Peine Brailler
TTITLE8=Travailler C' Est Trop Dur
TTITLE9=Tite Fille
TTITLE10=Vagabond Special
TTITLE11=Iko Iko
EXTD=
EXTT0=
EXTT1=
EXTT2=
EXTT3=
EXTT4=
EXTT5=
EXTT6=
EXTT7=
EXTT8=
EXTT9=
EXTT10=
EXTT11=
PLAYORDER=
